<?xml version="1.0" ?><!DOCTYPE svg  PUBLIC '-//W3C//DTD SVG 1.1//EN'  'http://www.w3.org/Graphics/SVG/1.1/DTD/svg11.dtd'><svg enable-background="new 0 0 24 24" height="24px" id="Layer_1" version="1.1" viewBox="0 0 24 24" width="24px" xml:space="preserve" xmlns="http://www.w3.org/2000/svg" xmlns:xlink="http://www.w3.org/1999/xlink"><g><path d="M23,8H5V6c0-1.1,0.9-2,2-2h11c1.1,0,2-0.9,2-2s-0.9-2-2-2h-6.5C11.2,0,11,0.2,11,0.5S11.2,1,11.5,1H18c0.6,0,1,0.4,1,1   s-0.4,1-1,1H7C5.3,3,4,4.3,4,6v2H1C0.4,8,0,8.4,0,9v14c0,0.6,0.4,1,1,1h22c0.6,0,1-0.4,1-1V9C24,8.4,23.6,8,23,8z M22,22H2V10h20   V22z"/><rect height="2" width="2" x="5" y="15"/><rect height="2" width="2" x="8" y="15"/><rect height="2" width="11" x="5" y="18"/><rect height="2" width="2" x="11" y="15"/><rect height="2" width="2" x="14" y="15"/><rect height="2" width="2" x="17" y="15"/><rect height="2" width="2" x="5" y="12"/><rect height="2" width="2" x="8" y="12"/><rect height="2" width="2" x="11" y="12"/><rect height="2" width="2" x="14" y="12"/><rect height="2" width="2" x="17" y="12"/><rect height="2" width="2" x="17" y="18"/></g></svg>